<svg width="32" height="32" viewBox="0 0 32 32" fill="none" xmlns="http://www.w3.org/2000/svg">
<g id="fluent:money-16-regular">
<path id="Vector" d="M18 14C18 15.0609 17.5786 16.0783 16.8284 16.8284C16.0783 17.5786 15.0609 18 14 18C12.9391 18 11.9217 17.5786 11.1716 16.8284C10.4214 16.0783 10 15.0609 10 14C10 12.9391 10.4214 11.9217 11.1716 11.1716C11.9217 10.4214 12.9391 10 14 10C15.0609 10 16.0783 10.4214 16.8284 11.1716C17.5786 11.9217 18 12.9391 18 14ZM16 14C16 13.4696 15.7893 12.9609 15.4142 12.5858C15.0391 12.2107 14.5304 12 14 12C13.4696 12 12.9609 12.2107 12.5858 12.5858C12.2107 12.9609 12 13.4696 12 14C12 14.5304 12.2107 15.0391 12.5858 15.4142C12.9609 15.7893 13.4696 16 14 16C14.5304 16 15.0391 15.7893 15.4142 15.4142C15.7893 15.0391 16 14.5304 16 14ZM2 8.5C2 7.12 3.12 6 4.5 6H23.5C24.88 6 26 7.12 26 8.5V19.5C26 20.88 24.88 22 23.5 22H4.5C3.12 22 2 20.88 2 19.5V8.5ZM4.5 8C4.36739 8 4.24021 8.05268 4.14645 8.14645C4.05268 8.24021 4 8.36739 4 8.5V10H5C5.26522 10 5.51957 9.89464 5.70711 9.70711C5.89464 9.51957 6 9.26522 6 9V8H4.5ZM4 19.5C4 19.776 4.224 20 4.5 20H6V19C6 18.7348 5.89464 18.4804 5.70711 18.2929C5.51957 18.1054 5.26522 18 5 18H4V19.5ZM8 19V20H20V19C20 18.2044 20.3161 17.4413 20.8787 16.8787C21.4413 16.3161 22.2044 16 23 16H24V12H23C22.2044 12 21.4413 11.6839 20.8787 11.1213C20.3161 10.5587 20 9.79565 20 9V8H8V9C8 9.79565 7.68393 10.5587 7.12132 11.1213C6.55871 11.6839 5.79565 12 5 12H4V16H5C5.79565 16 6.55871 16.3161 7.12132 16.8787C7.68393 17.4413 8 18.2044 8 19ZM22 20H23.5C23.6326 20 23.7598 19.9473 23.8536 19.8536C23.9473 19.7598 24 19.6326 24 19.5V18H23C22.7348 18 22.4804 18.1054 22.2929 18.2929C22.1054 18.4804 22 18.7348 22 19V20ZM24 10V8.5C24 8.36739 23.9473 8.24021 23.8536 8.14645C23.7598 8.05268 23.6326 8 23.5 8H22V9C22 9.26522 22.1054 9.51957 22.2929 9.70711C22.4804 9.89464 22.7348 10 23 10H24ZM9 26C8.36644 26.0002 7.74906 25.7999 7.23637 25.4277C6.72367 25.0555 6.34198 24.5305 6.146 23.928C6.424 23.976 6.708 24 7 24H23.5C24.6935 24 25.8381 23.5259 26.682 22.682C27.5259 21.8381 28 20.6935 28 19.5V10.17C28.5852 10.3769 29.0917 10.7602 29.4499 11.267C29.8081 11.7739 30.0003 12.3793 30 13V19.5C30 20.3536 29.8319 21.1988 29.5052 21.9874C29.1786 22.7761 28.6998 23.4926 28.0962 24.0962C27.4926 24.6998 26.7761 25.1786 25.9874 25.5052C25.1988 25.8319 24.3536 26 23.5 26H9Z" fill="#18AFF0"/>
<mask id="mask0_71_2375" style="mask-type:alpha" maskUnits="userSpaceOnUse" x="2" y="6" width="28" height="20">
<path id="Vector_2" d="M18 14C18 15.0609 17.5786 16.0783 16.8284 16.8284C16.0783 17.5786 15.0609 18 14 18C12.9391 18 11.9217 17.5786 11.1716 16.8284C10.4214 16.0783 10 15.0609 10 14C10 12.9391 10.4214 11.9217 11.1716 11.1716C11.9217 10.4214 12.9391 10 14 10C15.0609 10 16.0783 10.4214 16.8284 11.1716C17.5786 11.9217 18 12.9391 18 14ZM16 14C16 13.4696 15.7893 12.9609 15.4142 12.5858C15.0391 12.2107 14.5304 12 14 12C13.4696 12 12.9609 12.2107 12.5858 12.5858C12.2107 12.9609 12 13.4696 12 14C12 14.5304 12.2107 15.0391 12.5858 15.4142C12.9609 15.7893 13.4696 16 14 16C14.5304 16 15.0391 15.7893 15.4142 15.4142C15.7893 15.0391 16 14.5304 16 14ZM2 8.5C2 7.12 3.12 6 4.5 6H23.5C24.88 6 26 7.12 26 8.5V19.5C26 20.88 24.88 22 23.5 22H4.5C3.12 22 2 20.88 2 19.5V8.5ZM4.5 8C4.36739 8 4.24021 8.05268 4.14645 8.14645C4.05268 8.24021 4 8.36739 4 8.5V10H5C5.26522 10 5.51957 9.89464 5.70711 9.70711C5.89464 9.51957 6 9.26522 6 9V8H4.5ZM4 19.5C4 19.776 4.224 20 4.5 20H6V19C6 18.7348 5.89464 18.4804 5.70711 18.2929C5.51957 18.1054 5.26522 18 5 18H4V19.5ZM8 19V20H20V19C20 18.2044 20.3161 17.4413 20.8787 16.8787C21.4413 16.3161 22.2044 16 23 16H24V12H23C22.2044 12 21.4413 11.6839 20.8787 11.1213C20.3161 10.5587 20 9.79565 20 9V8H8V9C8 9.79565 7.68393 10.5587 7.12132 11.1213C6.55871 11.6839 5.79565 12 5 12H4V16H5C5.79565 16 6.55871 16.3161 7.12132 16.8787C7.68393 17.4413 8 18.2044 8 19ZM22 20H23.5C23.6326 20 23.7598 19.9473 23.8536 19.8536C23.9473 19.7598 24 19.6326 24 19.5V18H23C22.7348 18 22.4804 18.1054 22.2929 18.2929C22.1054 18.4804 22 18.7348 22 19V20ZM24 10V8.5C24 8.36739 23.9473 8.24021 23.8536 8.14645C23.7598 8.05268 23.6326 8 23.5 8H22V9C22 9.26522 22.1054 9.51957 22.2929 9.70711C22.4804 9.89464 22.7348 10 23 10H24ZM9 26C8.36644 26.0002 7.74906 25.7999 7.23637 25.4277C6.72367 25.0555 6.34198 24.5305 6.146 23.928C6.424 23.976 6.708 24 7 24H23.5C24.6935 24 25.8381 23.5259 26.682 22.682C27.5259 21.8381 28 20.6935 28 19.5V10.17C28.5852 10.3769 29.0917 10.7602 29.4499 11.267C29.8081 11.7739 30.0003 12.3793 30 13V19.5C30 20.3536 29.8319 21.1988 29.5052 21.9874C29.1786 22.7761 28.6998 23.4926 28.0962 24.0962C27.4926 24.6998 26.7761 25.1786 25.9874 25.5052C25.1988 25.8319 24.3536 26 23.5 26H9Z" fill="#18AFF0"/>
</mask>
<g mask="url(#mask0_71_2375)">
<rect id="Rectangle 1241" x="2" y="6" width="24" height="16" fill="#FC377E"/>
</g>
</g>
</svg>
