<svg width="32" height="32" viewBox="0 0 32 32" fill="none" xmlns="http://www.w3.org/2000/svg">
<g id="fluent:arrow-growth-24-filled">
<path id="Vector" d="M22.6667 5.33341C22.313 5.33341 21.9739 5.19294 21.7239 4.94289C21.4738 4.69284 21.3333 4.3537 21.3333 4.00008C21.3333 3.64646 21.4738 3.30732 21.7239 3.05727C21.9739 2.80722 22.313 2.66675 22.6667 2.66675H28C28.3536 2.66675 28.6928 2.80722 28.9428 3.05727C29.1929 3.30732 29.3333 3.64646 29.3333 4.00008V9.33341C29.3333 9.68704 29.1929 10.0262 28.9428 10.2762C28.6928 10.5263 28.3536 10.6667 28 10.6667C27.6464 10.6667 27.3072 10.5263 27.0572 10.2762C26.8071 10.0262 26.6667 9.68704 26.6667 9.33341V7.21875L18.9427 14.9427C18.6926 15.1927 18.3536 15.3331 18 15.3331C17.6464 15.3331 17.3074 15.1927 17.0573 14.9427L13.3333 11.2187L6.276 18.2761C6.02453 18.519 5.68773 18.6533 5.33813 18.6503C4.98854 18.6473 4.65412 18.507 4.40691 18.2598C4.1597 18.0126 4.01947 17.6782 4.01643 17.3286C4.0134 16.979 4.14779 16.6422 4.39067 16.3907L12.3907 8.39075C12.6407 8.14079 12.9798 8.00037 13.3333 8.00037C13.6869 8.00037 14.026 8.14079 14.276 8.39075L18 12.1147L24.7813 5.33341H22.6667ZM6.66667 24.0001V28.0001C6.66667 28.3537 6.52619 28.6928 6.27614 28.9429C6.02609 29.1929 5.68696 29.3334 5.33333 29.3334C4.97971 29.3334 4.64057 29.1929 4.39052 28.9429C4.14048 28.6928 4 28.3537 4 28.0001V24.0001C4 23.6465 4.14048 23.3073 4.39052 23.0573C4.64057 22.8072 4.97971 22.6667 5.33333 22.6667C5.68696 22.6667 6.02609 22.8072 6.27614 23.0573C6.52619 23.3073 6.66667 23.6465 6.66667 24.0001ZM13.3333 18.6667C13.3333 18.3131 13.1929 17.974 12.9428 17.7239C12.6928 17.4739 12.3536 17.3334 12 17.3334C11.6464 17.3334 11.3072 17.4739 11.0572 17.7239C10.8071 17.974 10.6667 18.3131 10.6667 18.6667V28.0001C10.6667 28.3537 10.8071 28.6928 11.0572 28.9429C11.3072 29.1929 11.6464 29.3334 12 29.3334C12.3536 29.3334 12.6928 29.1929 12.9428 28.9429C13.1929 28.6928 13.3333 28.3537 13.3333 28.0001V18.6667ZM18.6667 20.0001C19.0203 20.0001 19.3594 20.1406 19.6095 20.3906C19.8595 20.6407 20 20.9798 20 21.3334V28.0001C20 28.3537 19.8595 28.6928 19.6095 28.9429C19.3594 29.1929 19.0203 29.3334 18.6667 29.3334C18.313 29.3334 17.9739 29.1929 17.7239 28.9429C17.4738 28.6928 17.3333 28.3537 17.3333 28.0001V21.3334C17.3333 20.9798 17.4738 20.6407 17.7239 20.3906C17.9739 20.1406 18.313 20.0001 18.6667 20.0001ZM26.6667 14.6667C26.6667 14.3131 26.5262 13.974 26.2761 13.7239C26.0261 13.4739 25.687 13.3334 25.3333 13.3334C24.9797 13.3334 24.6406 13.4739 24.3905 13.7239C24.1405 13.974 24 14.3131 24 14.6667V28.0001C24 28.3537 24.1405 28.6928 24.3905 28.9429C24.6406 29.1929 24.9797 29.3334 25.3333 29.3334C25.687 29.3334 26.0261 29.1929 26.2761 28.9429C26.5262 28.6928 26.6667 28.3537 26.6667 28.0001V14.6667Z" fill="#FC377E"/>
<mask id="mask0_71_2383" style="mask-type:alpha" maskUnits="userSpaceOnUse" x="4" y="2" width="26" height="28">
<path id="Vector_2" d="M22.6667 5.33341C22.313 5.33341 21.9739 5.19294 21.7239 4.94289C21.4738 4.69284 21.3333 4.3537 21.3333 4.00008C21.3333 3.64646 21.4738 3.30732 21.7239 3.05727C21.9739 2.80722 22.313 2.66675 22.6667 2.66675H28C28.3536 2.66675 28.6928 2.80722 28.9428 3.05727C29.1929 3.30732 29.3333 3.64646 29.3333 4.00008V9.33341C29.3333 9.68704 29.1929 10.0262 28.9428 10.2762C28.6928 10.5263 28.3536 10.6667 28 10.6667C27.6464 10.6667 27.3072 10.5263 27.0572 10.2762C26.8071 10.0262 26.6667 9.68704 26.6667 9.33341V7.21875L18.9427 14.9427C18.6926 15.1927 18.3536 15.3331 18 15.3331C17.6464 15.3331 17.3074 15.1927 17.0573 14.9427L13.3333 11.2187L6.276 18.2761C6.02453 18.519 5.68773 18.6533 5.33813 18.6503C4.98854 18.6473 4.65412 18.507 4.40691 18.2598C4.1597 18.0126 4.01947 17.6782 4.01643 17.3286C4.0134 16.979 4.14779 16.6422 4.39067 16.3907L12.3907 8.39075C12.6407 8.14079 12.9798 8.00037 13.3333 8.00037C13.6869 8.00037 14.026 8.14079 14.276 8.39075L18 12.1147L24.7813 5.33341H22.6667ZM6.66667 24.0001V28.0001C6.66667 28.3537 6.52619 28.6928 6.27614 28.9429C6.02609 29.1929 5.68696 29.3334 5.33333 29.3334C4.97971 29.3334 4.64057 29.1929 4.39052 28.9429C4.14048 28.6928 4 28.3537 4 28.0001V24.0001C4 23.6465 4.14048 23.3073 4.39052 23.0573C4.64057 22.8072 4.97971 22.6667 5.33333 22.6667C5.68696 22.6667 6.02609 22.8072 6.27614 23.0573C6.52619 23.3073 6.66667 23.6465 6.66667 24.0001ZM13.3333 18.6667C13.3333 18.3131 13.1929 17.974 12.9428 17.7239C12.6928 17.4739 12.3536 17.3334 12 17.3334C11.6464 17.3334 11.3072 17.4739 11.0572 17.7239C10.8071 17.974 10.6667 18.3131 10.6667 18.6667V28.0001C10.6667 28.3537 10.8071 28.6928 11.0572 28.9429C11.3072 29.1929 11.6464 29.3334 12 29.3334C12.3536 29.3334 12.6928 29.1929 12.9428 28.9429C13.1929 28.6928 13.3333 28.3537 13.3333 28.0001V18.6667ZM18.6667 20.0001C19.0203 20.0001 19.3594 20.1406 19.6095 20.3906C19.8595 20.6407 20 20.9798 20 21.3334V28.0001C20 28.3537 19.8595 28.6928 19.6095 28.9429C19.3594 29.1929 19.0203 29.3334 18.6667 29.3334C18.313 29.3334 17.9739 29.1929 17.7239 28.9429C17.4738 28.6928 17.3333 28.3537 17.3333 28.0001V21.3334C17.3333 20.9798 17.4738 20.6407 17.7239 20.3906C17.9739 20.1406 18.313 20.0001 18.6667 20.0001ZM26.6667 14.6667C26.6667 14.3131 26.5262 13.974 26.2761 13.7239C26.0261 13.4739 25.687 13.3334 25.3333 13.3334C24.9797 13.3334 24.6406 13.4739 24.3905 13.7239C24.1405 13.974 24 14.3131 24 14.6667V28.0001C24 28.3537 24.1405 28.6928 24.3905 28.9429C24.6406 29.1929 24.9797 29.3334 25.3333 29.3334C25.687 29.3334 26.0261 29.1929 26.2761 28.9429C26.5262 28.6928 26.6667 28.3537 26.6667 28.0001V14.6667Z" fill="#FC377E"/>
</mask>
<g mask="url(#mask0_71_2383)">
<rect id="Rectangle 1242" x="16" y="19" width="5" height="11" fill="#18AFF0"/>
<rect id="Rectangle 1243" x="3" y="21" width="5" height="9" fill="#18AFF0"/>
</g>
</g>
</svg>
