<svg width="32" height="32" viewBox="0 0 32 32" fill="none" xmlns="http://www.w3.org/2000/svg">
<g id="mdi:plane-train">
<path id="Vector" d="M26.6667 10.6666H18.6667C16.4534 10.6666 14.6667 12.4533 14.6667 14.6666V24C14.6667 26.2133 16.4534 28 18.6667 28L17.6095 29.0572C17.4327 29.234 17.3334 29.4746 17.3334 29.7247C17.3334 30.2438 17.7542 30.6666 18.2733 30.6666C18.525 30.6666 18.7662 30.5657 18.9428 30.3864L21.0396 28.2581C21.2276 28.0674 21.4842 27.96 21.752 27.96H23.5815C23.8493 27.96 24.1059 28.0674 24.2938 28.2581L26.3906 30.3864C26.5672 30.5657 26.8084 30.6666 27.0601 30.6666C27.5792 30.6666 28 30.2438 28 29.7247C28 29.4746 27.9007 29.234 27.7239 29.0572L26.6667 28C28.88 28 30.6667 26.2133 30.6667 24V14.6666C30.6667 12.4533 28.88 10.6666 26.6667 10.6666ZM18.6667 25.3333C17.9334 25.3333 17.3334 24.7333 17.3334 24C17.3334 23.2666 17.9334 22.6666 18.6667 22.6666C19.4 22.6666 20 23.2666 20 24C20 24.7333 19.4 25.3333 18.6667 25.3333ZM26.6667 25.3333C25.9334 25.3333 25.3334 24.7333 25.3334 24C25.3334 23.2666 25.9334 22.6666 26.6667 22.6666C27.4 22.6666 28 23.2666 28 24C28 24.7333 27.4 25.3333 26.6667 25.3333ZM28 20.3333C28 20.8856 27.5523 21.3333 27 21.3333H18.3334C17.7811 21.3333 17.3334 20.8856 17.3334 20.3333V14.3333C17.3334 13.781 17.7811 13.3333 18.3334 13.3333H27C27.5523 13.3333 28 13.781 28 14.3333V20.3333ZM9.23134 19.022C9.01004 19.2433 8.90511 19.5554 8.94779 19.8655L9.26603 22.1774C9.30848 22.4858 9.20489 22.7963 8.98582 23.0175L8.87253 23.1319C8.40312 23.6057 7.61015 23.496 7.28715 22.9124L5.72562 20.091C5.63484 19.9269 5.49979 19.7917 5.33586 19.7008L2.48205 18.1173C1.90431 17.7968 1.79073 17.014 2.25354 16.5424L2.39015 16.4032C2.61418 16.175 2.93387 16.0677 3.25024 16.1145L5.58231 16.4596C5.89543 16.506 6.212 16.4013 6.43582 16.1775L10.2802 12.3332C10.7566 11.8567 10.6351 11.0549 10.0388 10.7411L2.53912 6.79448C1.9415 6.47998 1.821 5.67577 2.30021 5.19993L2.83509 4.66882C3.07884 4.42679 3.42976 4.3268 3.76447 4.40402L14.94 6.98205C15.276 7.05955 15.6281 6.95854 15.8719 6.71475L20.6667 1.91996C21.4134 1.13996 22.7467 1.13996 23.4934 1.91996C24.28 2.70663 24.28 3.99996 23.4934 4.74663L19.0764 9.16359C18.9678 9.27225 18.8204 9.33329 18.6667 9.33329C15.72 9.33329 13.3334 11.72 13.3334 14.6666C13.3334 14.8288 13.2689 14.9844 13.1542 15.0991L9.23134 19.022Z" fill="#18AFF0"/>
<mask id="mask0_71_2392" style="mask-type:alpha" maskUnits="userSpaceOnUse" x="1" y="1" width="30" height="30">
<path id="Vector_2" d="M26.6667 10.6666H18.6667C16.4534 10.6666 14.6667 12.4533 14.6667 14.6666V24C14.6667 26.2133 16.4534 28 18.6667 28L17.6095 29.0572C17.4327 29.234 17.3334 29.4746 17.3334 29.7247C17.3334 30.2438 17.7542 30.6666 18.2733 30.6666C18.525 30.6666 18.7662 30.5657 18.9428 30.3864L21.0396 28.2581C21.2276 28.0674 21.4842 27.96 21.752 27.96H23.5815C23.8493 27.96 24.1059 28.0674 24.2938 28.2581L26.3906 30.3864C26.5672 30.5657 26.8084 30.6666 27.0601 30.6666C27.5792 30.6666 28 30.2438 28 29.7247C28 29.4746 27.9007 29.234 27.7239 29.0572L26.6667 28C28.88 28 30.6667 26.2133 30.6667 24V14.6666C30.6667 12.4533 28.88 10.6666 26.6667 10.6666ZM18.6667 25.3333C17.9334 25.3333 17.3334 24.7333 17.3334 24C17.3334 23.2666 17.9334 22.6666 18.6667 22.6666C19.4 22.6666 20 23.2666 20 24C20 24.7333 19.4 25.3333 18.6667 25.3333ZM26.6667 25.3333C25.9334 25.3333 25.3334 24.7333 25.3334 24C25.3334 23.2666 25.9334 22.6666 26.6667 22.6666C27.4 22.6666 28 23.2666 28 24C28 24.7333 27.4 25.3333 26.6667 25.3333ZM28 20.3333C28 20.8856 27.5523 21.3333 27 21.3333H18.3334C17.7811 21.3333 17.3334 20.8856 17.3334 20.3333V14.3333C17.3334 13.781 17.7811 13.3333 18.3334 13.3333H27C27.5523 13.3333 28 13.781 28 14.3333V20.3333ZM9.23134 19.022C9.01004 19.2433 8.90511 19.5554 8.94779 19.8655L9.26603 22.1774C9.30848 22.4858 9.20489 22.7963 8.98582 23.0175L8.87253 23.1319C8.40312 23.6057 7.61015 23.496 7.28715 22.9124L5.72562 20.091C5.63484 19.9269 5.49979 19.7917 5.33586 19.7008L2.48205 18.1173C1.90431 17.7968 1.79073 17.014 2.25354 16.5424L2.39015 16.4032C2.61418 16.175 2.93387 16.0677 3.25024 16.1145L5.58231 16.4596C5.89543 16.506 6.212 16.4013 6.43582 16.1775L10.2802 12.3332C10.7566 11.8567 10.6351 11.0549 10.0388 10.7411L2.53912 6.79448C1.9415 6.47998 1.821 5.67577 2.30021 5.19993L2.83509 4.66882C3.07884 4.42679 3.42976 4.3268 3.76447 4.40402L14.94 6.98205C15.276 7.05955 15.6281 6.95854 15.8719 6.71475L20.6667 1.91996C21.4134 1.13996 22.7467 1.13996 23.4934 1.91996C24.28 2.70663 24.28 3.99996 23.4934 4.74663L19.0764 9.16359C18.9678 9.27225 18.8204 9.33329 18.6667 9.33329C15.72 9.33329 13.3334 11.72 13.3334 14.6666C13.3334 14.8288 13.2689 14.9844 13.1542 15.0991L9.23134 19.022Z" fill="#18AFF0"/>
</mask>
<g mask="url(#mask0_71_2392)">
<path id="Rectangle 1244" d="M14 16C14 12.6863 16.6863 10 20 10H31V31H14V16Z" fill="#FC377E"/>
</g>
</g>
</svg>
