<svg width="32" height="32" viewBox="0 0 32 32" fill="none" xmlns="http://www.w3.org/2000/svg">
<g id="fluent:person-money-20-filled">
<path id="Vector" d="M16 3.20001C14.3026 3.20001 12.6747 3.8743 11.4745 5.07453C10.2743 6.27476 9.6 7.90263 9.6 9.60001C9.6 11.2974 10.2743 12.9253 11.4745 14.1255C12.6747 15.3257 14.3026 16 16 16C17.6974 16 19.3253 15.3257 20.5255 14.1255C21.7257 12.9253 22.4 11.2974 22.4 9.60001C22.4 7.90263 21.7257 6.27476 20.5255 5.07453C19.3253 3.8743 17.6974 3.20001 16 3.20001ZM8.0144 17.6C7.59302 17.5983 7.17545 17.6798 6.78564 17.8399C6.39583 17.9999 6.04145 18.2353 5.74281 18.5326C5.44418 18.8299 5.20717 19.1833 5.04539 19.5723C4.8836 19.9614 4.80021 20.3786 4.8 20.8C4.8 23.5056 6.1328 25.5456 8.216 26.8752C9.8928 27.944 12.048 28.552 14.4 28.736V22.4C14.4 21.5513 14.7371 20.7374 15.3373 20.1373C15.9374 19.5372 16.7513 19.2 17.6 19.2H26.7712C26.4903 18.7136 26.0864 18.3096 25.6 18.0288C25.1135 17.7479 24.5617 17.6 24 17.6H8.0144ZM30.4 23.2V28C30.4 28.6365 30.1471 29.247 29.6971 29.6971C29.247 30.1472 28.6365 30.4 28 30.4H18.4C17.7635 30.4 17.153 30.1472 16.7029 29.6971C16.2529 29.247 16 28.6365 16 28V23.2C16 22.5635 16.2529 21.953 16.7029 21.503C17.153 21.0529 17.7635 20.8 18.4 20.8H28C28.6365 20.8 29.247 21.0529 29.6971 21.503C30.1471 21.953 30.4 22.5635 30.4 23.2ZM28.8 28V26.4C28.1635 26.4 27.553 26.6529 27.1029 27.103C26.6529 27.553 26.4 28.1635 26.4 28.8H28C28 28.5878 28.0843 28.3844 28.2343 28.2343C28.3843 28.0843 28.5878 28 28.8 28ZM28.8 23.2C28.5878 23.2 28.3843 23.1157 28.2343 22.9657C28.0843 22.8157 28 22.6122 28 22.4H26.4C26.4 23.0365 26.6529 23.647 27.1029 24.0971C27.553 24.5472 28.1635 24.8 28.8 24.8V23.2ZM18.4 22.4C18.4 22.6122 18.3157 22.8157 18.1657 22.9657C18.0157 23.1157 17.8122 23.2 17.6 23.2V24.8C18.2365 24.8 18.847 24.5472 19.2971 24.0971C19.7471 23.647 20 23.0365 20 22.4H18.4ZM17.6 28C17.8122 28 18.0157 28.0843 18.1657 28.2343C18.3157 28.3844 18.4 28.5878 18.4 28.8H20C20 28.1635 19.7471 27.553 19.2971 27.103C18.847 26.6529 18.2365 26.4 17.6 26.4V28ZM23.2 23.2C22.5635 23.2 21.953 23.4529 21.5029 23.903C21.0529 24.353 20.8 24.9635 20.8 25.6C20.8 26.2365 21.0529 26.847 21.5029 27.2971C21.953 27.7472 22.5635 28 23.2 28C23.8365 28 24.447 27.7472 24.8971 27.2971C25.3471 26.847 25.6 26.2365 25.6 25.6C25.6 24.9635 25.3471 24.353 24.8971 23.903C24.447 23.4529 23.8365 23.2 23.2 23.2Z" fill="#FC377E"/>
<mask id="mask0_42_1049" style="mask-type:alpha" maskUnits="userSpaceOnUse" x="4" y="3" width="27" height="28">
<path id="Vector_2" d="M16 3.20001C14.3026 3.20001 12.6747 3.8743 11.4745 5.07453C10.2743 6.27476 9.6 7.90263 9.6 9.60001C9.6 11.2974 10.2743 12.9253 11.4745 14.1255C12.6747 15.3257 14.3026 16 16 16C17.6974 16 19.3253 15.3257 20.5255 14.1255C21.7257 12.9253 22.4 11.2974 22.4 9.60001C22.4 7.90263 21.7257 6.27476 20.5255 5.07453C19.3253 3.8743 17.6974 3.20001 16 3.20001ZM8.0144 17.6C7.59302 17.5983 7.17545 17.6798 6.78564 17.8399C6.39583 17.9999 6.04145 18.2353 5.74281 18.5326C5.44418 18.8299 5.20717 19.1833 5.04539 19.5723C4.8836 19.9614 4.80021 20.3786 4.8 20.8C4.8 23.5056 6.1328 25.5456 8.216 26.8752C9.8928 27.944 12.048 28.552 14.4 28.736V22.4C14.4 21.5513 14.7371 20.7374 15.3373 20.1373C15.9374 19.5372 16.7513 19.2 17.6 19.2H26.7712C26.4903 18.7136 26.0864 18.3096 25.6 18.0288C25.1135 17.7479 24.5617 17.6 24 17.6H8.0144ZM30.4 23.2V28C30.4 28.6365 30.1471 29.247 29.6971 29.6971C29.247 30.1472 28.6365 30.4 28 30.4H18.4C17.7635 30.4 17.153 30.1472 16.7029 29.6971C16.2529 29.247 16 28.6365 16 28V23.2C16 22.5635 16.2529 21.953 16.7029 21.503C17.153 21.0529 17.7635 20.8 18.4 20.8H28C28.6365 20.8 29.247 21.0529 29.6971 21.503C30.1471 21.953 30.4 22.5635 30.4 23.2ZM28.8 28V26.4C28.1635 26.4 27.553 26.6529 27.1029 27.103C26.6529 27.553 26.4 28.1635 26.4 28.8H28C28 28.5878 28.0843 28.3844 28.2343 28.2343C28.3843 28.0843 28.5878 28 28.8 28ZM28.8 23.2C28.5878 23.2 28.3843 23.1157 28.2343 22.9657C28.0843 22.8157 28 22.6122 28 22.4H26.4C26.4 23.0365 26.6529 23.647 27.1029 24.0971C27.553 24.5472 28.1635 24.8 28.8 24.8V23.2ZM18.4 22.4C18.4 22.6122 18.3157 22.8157 18.1657 22.9657C18.0157 23.1157 17.8122 23.2 17.6 23.2V24.8C18.2365 24.8 18.847 24.5472 19.2971 24.0971C19.7471 23.647 20 23.0365 20 22.4H18.4ZM17.6 28C17.8122 28 18.0157 28.0843 18.1657 28.2343C18.3157 28.3844 18.4 28.5878 18.4 28.8H20C20 28.1635 19.7471 27.553 19.2971 27.103C18.847 26.6529 18.2365 26.4 17.6 26.4V28ZM23.2 23.2C22.5635 23.2 21.953 23.4529 21.5029 23.903C21.0529 24.353 20.8 24.9635 20.8 25.6C20.8 26.2365 21.0529 26.847 21.5029 27.2971C21.953 27.7472 22.5635 28 23.2 28C23.8365 28 24.447 27.7472 24.8971 27.2971C25.3471 26.847 25.6 26.2365 25.6 25.6C25.6 24.9635 25.3471 24.353 24.8971 23.903C24.447 23.4529 23.8365 23.2 23.2 23.2Z" fill="#FC377E"/>
</mask>
<g mask="url(#mask0_42_1049)">
<path id="Rectangle 1253" d="M15 23C15 21.3431 16.3431 20 18 20H31V31H15V23Z" fill="#18AFF0"/>
</g>
</g>
</svg>
