<svg width="32" height="32" viewBox="0 0 32 32" fill="none" xmlns="http://www.w3.org/2000/svg">
<g id="fluent:globe-star-20-filled">
<path id="Vector" d="M11.7088 10.4C11.9776 9.00321 12.344 7.74881 12.7808 6.68801C13.2624 5.51521 13.8176 4.61761 14.3936 4.02721C14.9664 3.43841 15.5088 3.20001 16 3.20001C16.4912 3.20001 17.0336 3.43841 17.6064 4.02721C18.1824 4.61921 18.7376 5.51521 19.2192 6.68801C19.656 7.74881 20.0224 9.00321 20.2912 10.4H11.7088ZM11.3008 6.08001C11.6423 5.21902 12.0866 4.40244 12.624 3.64801C10.8658 4.13072 9.23059 4.98259 7.82741 6.14685C6.42423 7.31111 5.28527 8.76103 4.48642 10.4H10.0816C10.3728 8.78881 10.7872 7.32481 11.3008 6.08001ZM20.6992 6.08001C20.3576 5.21959 19.9133 4.40355 19.376 3.64961C21.1341 4.13214 22.7692 4.98376 24.1724 6.14774C25.5756 7.31172 26.7146 8.76133 27.5136 10.4H21.9184C21.6272 8.78881 21.2128 7.32481 20.6992 6.08001ZM22.16 12H28.1632C28.6293 13.4207 28.8426 14.9121 28.7936 16.4064C27.9044 15.6713 26.8787 15.1191 25.7755 14.7814C24.6722 14.4436 23.5132 14.3271 22.3648 14.4384C22.3277 13.6233 22.2594 12.8099 22.16 12ZM20.776 14.7376C20.7411 13.8221 20.6647 12.9086 20.5472 12H11.4528C11.2826 13.3265 11.1982 14.6626 11.2 16C11.2 17.4 11.2896 18.7424 11.4528 20H15C15.494 18.7382 16.272 17.6071 17.2737 16.6945C18.2753 15.7819 19.4738 15.1123 20.776 14.7376ZM14.544 21.6H11.7088C11.9776 22.9968 12.344 24.2512 12.7808 25.312C13.2624 26.4848 13.8176 27.3824 14.3936 27.9728C14.9664 28.5616 15.5088 28.8 16 28.8C16.1216 28.8 16.2464 28.784 16.3744 28.7536C15.0948 27.1859 14.3972 25.2237 14.4 23.2C14.4 22.6544 14.4496 22.1184 14.544 21.6ZM4.48482 21.6C5.28402 23.2389 6.42331 24.6886 7.82677 25.8526C9.23023 27.0166 10.8656 27.8681 12.624 28.3504C12.0863 27.5971 11.6415 26.7816 11.2992 25.9216C10.7872 24.6736 10.3712 23.2112 10.08 21.6H4.48482ZM9.83842 20H3.83682C3.41339 18.709 3.19843 17.3587 3.20002 16C3.20002 14.6032 3.42402 13.2592 3.83682 12H9.84002C9.68322 13.272 9.60002 14.6144 9.60002 16C9.60002 17.3856 9.68162 18.728 9.83842 20ZM23.2 30.4C25.1096 30.4 26.9409 29.6414 28.2912 28.2912C29.6414 26.9409 30.4 25.1096 30.4 23.2C30.4 21.2905 29.6414 19.4591 28.2912 18.1088C26.9409 16.7586 25.1096 16 23.2 16C21.2905 16 19.4591 16.7586 18.1089 18.1088C16.7586 19.4591 16 21.2905 16 23.2C16 25.1096 16.7586 26.9409 18.1089 28.2912C19.4591 29.6414 21.2905 30.4 23.2 30.4ZM24.7264 21.4272H27.1968C27.9728 21.4272 28.296 22.4624 27.6688 22.9376L25.6688 24.4528L26.432 26.904C26.672 27.672 25.8272 28.312 25.2 27.8368L23.2 26.3216L21.2 27.8368C20.5728 28.312 19.728 27.672 19.968 26.904L20.7312 24.4528L18.7312 22.9376C18.104 22.4624 18.4272 21.4272 19.2016 21.4272H21.6752L22.4384 18.9776C22.4846 18.8111 22.5841 18.6644 22.7217 18.5598C22.8592 18.4552 23.0272 18.3986 23.2 18.3986C23.3728 18.3986 23.5408 18.4552 23.6784 18.5598C23.8159 18.6644 23.9154 18.8111 23.9616 18.9776L24.7248 21.4272H24.7264Z" fill="#18AFF0"/>
<mask id="mask0_42_1067" style="mask-type:alpha" maskUnits="userSpaceOnUse" x="3" y="3" width="28" height="28">
<path id="Vector_2" d="M11.7088 10.4C11.9776 9.00321 12.344 7.74881 12.7808 6.68801C13.2624 5.51521 13.8176 4.61761 14.3936 4.02721C14.9664 3.43841 15.5088 3.20001 16 3.20001C16.4912 3.20001 17.0336 3.43841 17.6064 4.02721C18.1824 4.61921 18.7376 5.51521 19.2192 6.68801C19.656 7.74881 20.0224 9.00321 20.2912 10.4H11.7088ZM11.3008 6.08001C11.6423 5.21902 12.0866 4.40244 12.624 3.64801C10.8658 4.13072 9.23059 4.98259 7.82741 6.14685C6.42423 7.31111 5.28527 8.76103 4.48642 10.4H10.0816C10.3728 8.78881 10.7872 7.32481 11.3008 6.08001ZM20.6992 6.08001C20.3576 5.21959 19.9133 4.40355 19.376 3.64961C21.1341 4.13214 22.7692 4.98376 24.1724 6.14774C25.5756 7.31172 26.7146 8.76133 27.5136 10.4H21.9184C21.6272 8.78881 21.2128 7.32481 20.6992 6.08001ZM22.16 12H28.1632C28.6293 13.4207 28.8426 14.9121 28.7936 16.4064C27.9044 15.6713 26.8787 15.1191 25.7755 14.7814C24.6722 14.4436 23.5132 14.3271 22.3648 14.4384C22.3277 13.6233 22.2594 12.8099 22.16 12ZM20.776 14.7376C20.7411 13.8221 20.6647 12.9086 20.5472 12H11.4528C11.2826 13.3265 11.1982 14.6626 11.2 16C11.2 17.4 11.2896 18.7424 11.4528 20H15C15.494 18.7382 16.272 17.6071 17.2737 16.6945C18.2753 15.7819 19.4738 15.1123 20.776 14.7376ZM14.544 21.6H11.7088C11.9776 22.9968 12.344 24.2512 12.7808 25.312C13.2624 26.4848 13.8176 27.3824 14.3936 27.9728C14.9664 28.5616 15.5088 28.8 16 28.8C16.1216 28.8 16.2464 28.784 16.3744 28.7536C15.0948 27.1859 14.3972 25.2237 14.4 23.2C14.4 22.6544 14.4496 22.1184 14.544 21.6ZM4.48482 21.6C5.28402 23.2389 6.42331 24.6886 7.82677 25.8526C9.23023 27.0166 10.8656 27.8681 12.624 28.3504C12.0863 27.5971 11.6415 26.7816 11.2992 25.9216C10.7872 24.6736 10.3712 23.2112 10.08 21.6H4.48482ZM9.83842 20H3.83682C3.41339 18.709 3.19843 17.3587 3.20002 16C3.20002 14.6032 3.42402 13.2592 3.83682 12H9.84002C9.68322 13.272 9.60002 14.6144 9.60002 16C9.60002 17.3856 9.68162 18.728 9.83842 20ZM23.2 30.4C25.1096 30.4 26.9409 29.6414 28.2912 28.2912C29.6414 26.9409 30.4 25.1096 30.4 23.2C30.4 21.2905 29.6414 19.4591 28.2912 18.1088C26.9409 16.7586 25.1096 16 23.2 16C21.2905 16 19.4591 16.7586 18.1089 18.1088C16.7586 19.4591 16 21.2905 16 23.2C16 25.1096 16.7586 26.9409 18.1089 28.2912C19.4591 29.6414 21.2905 30.4 23.2 30.4ZM24.7264 21.4272H27.1968C27.9728 21.4272 28.296 22.4624 27.6688 22.9376L25.6688 24.4528L26.432 26.904C26.672 27.672 25.8272 28.312 25.2 27.8368L23.2 26.3216L21.2 27.8368C20.5728 28.312 19.728 27.672 19.968 26.904L20.7312 24.4528L18.7312 22.9376C18.104 22.4624 18.4272 21.4272 19.2016 21.4272H21.6752L22.4384 18.9776C22.4846 18.8111 22.5841 18.6644 22.7217 18.5598C22.8592 18.4552 23.0272 18.3986 23.2 18.3986C23.3728 18.3986 23.5408 18.4552 23.6784 18.5598C23.8159 18.6644 23.9154 18.8111 23.9616 18.9776L24.7248 21.4272H24.7264Z" fill="#18AFF0"/>
</mask>
<g mask="url(#mask0_42_1067)">
<circle id="Ellipse 121" cx="23" cy="23" r="8" fill="#FC377E"/>
</g>
</g>
</svg>
