<svg width="32" height="32" viewBox="0 0 32 32" fill="none" xmlns="http://www.w3.org/2000/svg">
<g id="fluent:globe-person-20-filled">
<path id="Vector" d="M12.7792 6.68801C12.3007 7.88695 11.9421 9.13036 11.7088 10.4H20.2912C20.0574 9.1303 19.6983 7.88688 19.2192 6.68801C18.7376 5.51521 18.1824 4.61761 17.6064 4.02721C17.0336 3.43841 16.4912 3.20001 16 3.20001C15.5088 3.20001 14.9664 3.43841 14.3936 4.02721C13.8176 4.61921 13.2624 5.51521 12.7792 6.68801ZM12.6256 3.64961C12.1232 4.33121 11.6816 5.15521 11.3008 6.07841C10.7888 7.32641 10.3728 8.78881 10.0816 10.4H4.4864C5.2856 8.76116 6.42489 7.31144 7.82835 6.14745C9.23181 4.98347 10.8672 4.13194 12.6256 3.64961ZM19.376 3.64961C19.8768 4.33121 20.32 5.15521 20.6992 6.07841C21.2112 7.32641 21.6272 8.78881 21.9184 10.4H27.5136C26.7144 8.76116 25.5751 7.31144 24.1717 6.14745C22.7682 4.98347 21.1344 4.13194 19.376 3.64961ZM28.1632 12H22.16C22.28 12.9792 22.3584 14 22.3872 15.0496C23.4423 14.4345 24.6923 14.2451 25.8822 14.5202C27.0721 14.7952 28.1123 15.5139 28.7904 16.5296C28.8551 14.9943 28.6427 13.4599 28.1632 12ZM20.8 16C20.8 16.1856 20.7984 16.3696 20.7952 16.552C20.1215 17.5664 19.8605 18.7997 20.0656 20H11.4528C11.2826 18.6735 11.1982 17.3374 11.2 16C11.2 14.6 11.2896 13.256 11.4528 12H20.5472C20.7104 13.256 20.8 14.6 20.8 16ZM20.2912 21.6C20.2176 21.9824 20.136 22.352 20.0496 22.712C19.3236 23.0173 18.7038 23.5301 18.268 24.1862C17.8323 24.8423 17.5999 25.6124 17.6 26.4C17.6 26.864 17.6608 27.328 17.784 27.7792C17.7271 27.8454 17.6685 27.9099 17.608 27.9728C17.0336 28.5616 16.4912 28.8 16 28.8C15.5088 28.8 14.9664 28.5616 14.3936 27.9728C13.8176 27.3808 13.2624 26.4848 12.7792 25.312C12.3006 24.1131 11.9421 22.8697 11.7088 21.6H20.2912ZM12.624 28.3504C10.8659 27.8679 9.23081 27.0163 7.82764 25.8523C6.42447 24.6883 5.28543 23.2387 4.4864 21.6H10.0816C10.3728 23.2112 10.7872 24.6752 11.3008 25.92C11.68 26.8448 12.1216 27.6688 12.624 28.3504ZM3.8368 20H9.84C9.67865 18.6728 9.5985 17.337 9.6 16C9.6 14.6144 9.6832 13.272 9.84 12H3.8368C3.4134 13.2911 3.19844 14.6413 3.2 16C3.2 17.3968 3.424 18.7408 3.8368 20ZM28 19.2C28 20.0487 27.6629 20.8626 27.0627 21.4628C26.4626 22.0629 25.6487 22.4 24.8 22.4C23.9513 22.4 23.1374 22.0629 22.5373 21.4628C21.9371 20.8626 21.6 20.0487 21.6 19.2C21.6 18.3513 21.9371 17.5374 22.5373 16.9373C23.1374 16.3372 23.9513 16 24.8 16C25.6487 16 26.4626 16.3372 27.0627 16.9373C27.6629 17.5374 28 18.3513 28 19.2ZM30.4 26.4C30.4 28.392 28.8 30.4 24.8 30.4C20.8 30.4 19.2 28.4 19.2 26.4C19.2 25.7635 19.4529 25.153 19.9029 24.703C20.353 24.2529 20.9635 24 21.6 24H28C28.6365 24 29.247 24.2529 29.6971 24.703C30.1471 25.153 30.4 25.7635 30.4 26.4Z" fill="#18AFF0"/>
<mask id="mask0_42_1040" style="mask-type:alpha" maskUnits="userSpaceOnUse" x="3" y="3" width="28" height="28">
<path id="Vector_2" d="M12.7792 6.68801C12.3007 7.88695 11.9421 9.13036 11.7088 10.4H20.2912C20.0574 9.1303 19.6983 7.88688 19.2192 6.68801C18.7376 5.51521 18.1824 4.61761 17.6064 4.02721C17.0336 3.43841 16.4912 3.20001 16 3.20001C15.5088 3.20001 14.9664 3.43841 14.3936 4.02721C13.8176 4.61921 13.2624 5.51521 12.7792 6.68801ZM12.6256 3.64961C12.1232 4.33121 11.6816 5.15521 11.3008 6.07841C10.7888 7.32641 10.3728 8.78881 10.0816 10.4H4.4864C5.2856 8.76116 6.42489 7.31144 7.82835 6.14745C9.23181 4.98347 10.8672 4.13194 12.6256 3.64961ZM19.376 3.64961C19.8768 4.33121 20.32 5.15521 20.6992 6.07841C21.2112 7.32641 21.6272 8.78881 21.9184 10.4H27.5136C26.7144 8.76116 25.5751 7.31144 24.1717 6.14745C22.7682 4.98347 21.1344 4.13194 19.376 3.64961ZM28.1632 12H22.16C22.28 12.9792 22.3584 14 22.3872 15.0496C23.4423 14.4345 24.6923 14.2451 25.8822 14.5202C27.0721 14.7952 28.1123 15.5139 28.7904 16.5296C28.8551 14.9943 28.6427 13.4599 28.1632 12ZM20.8 16C20.8 16.1856 20.7984 16.3696 20.7952 16.552C20.1215 17.5664 19.8605 18.7997 20.0656 20H11.4528C11.2826 18.6735 11.1982 17.3374 11.2 16C11.2 14.6 11.2896 13.256 11.4528 12H20.5472C20.7104 13.256 20.8 14.6 20.8 16ZM20.2912 21.6C20.2176 21.9824 20.136 22.352 20.0496 22.712C19.3236 23.0173 18.7038 23.5301 18.268 24.1862C17.8323 24.8423 17.5999 25.6124 17.6 26.4C17.6 26.864 17.6608 27.328 17.784 27.7792C17.7271 27.8454 17.6685 27.9099 17.608 27.9728C17.0336 28.5616 16.4912 28.8 16 28.8C15.5088 28.8 14.9664 28.5616 14.3936 27.9728C13.8176 27.3808 13.2624 26.4848 12.7792 25.312C12.3006 24.1131 11.9421 22.8697 11.7088 21.6H20.2912ZM12.624 28.3504C10.8659 27.8679 9.23081 27.0163 7.82764 25.8523C6.42447 24.6883 5.28543 23.2387 4.4864 21.6H10.0816C10.3728 23.2112 10.7872 24.6752 11.3008 25.92C11.68 26.8448 12.1216 27.6688 12.624 28.3504ZM3.8368 20H9.84C9.67865 18.6728 9.5985 17.337 9.6 16C9.6 14.6144 9.6832 13.272 9.84 12H3.8368C3.4134 13.2911 3.19844 14.6413 3.2 16C3.2 17.3968 3.424 18.7408 3.8368 20ZM28 19.2C28 20.0487 27.6629 20.8626 27.0627 21.4628C26.4626 22.0629 25.6487 22.4 24.8 22.4C23.9513 22.4 23.1374 22.0629 22.5373 21.4628C21.9371 20.8626 21.6 20.0487 21.6 19.2C21.6 18.3513 21.9371 17.5374 22.5373 16.9373C23.1374 16.3372 23.9513 16 24.8 16C25.6487 16 26.4626 16.3372 27.0627 16.9373C27.6629 17.5374 28 18.3513 28 19.2ZM30.4 26.4C30.4 28.392 28.8 30.4 24.8 30.4C20.8 30.4 19.2 28.4 19.2 26.4C19.2 25.7635 19.4529 25.153 19.9029 24.703C20.353 24.2529 20.9635 24 21.6 24H28C28.6365 24 29.247 24.2529 29.6971 24.703C30.1471 25.153 30.4 25.7635 30.4 26.4Z" fill="#18AFF0"/>
</mask>
<g mask="url(#mask0_42_1040)">
<path id="Rectangle 1252" d="M21.5 16H27.5L31 22.5V31H19V25.5L21.5 22.5L20.5 19L21.5 16Z" fill="#FC377E"/>
</g>
</g>
</svg>
