<svg width="32" height="32" viewBox="0 0 32 32" fill="none" xmlns="http://www.w3.org/2000/svg">
<g id="fluent:shopping-bag-tag-20-filled">
<path id="Vector" d="M9.60003 9.59999V7.19999C9.60003 6.64959 9.70403 6.13279 9.91203 5.64959C10.12 5.15839 10.408 4.73279 10.7744 4.37439C11.1328 4.00799 11.5584 3.71999 12.0496 3.51199C12.5328 3.30399 13.0496 3.19999 13.6 3.19999C14.0496 3.19999 14.4784 3.27039 14.888 3.41279C15.2976 3.55519 15.672 3.75519 16.0128 4.01279C16.6969 3.48546 17.5363 3.19963 18.4 3.19999C19.1884 3.19648 19.96 3.42751 20.6167 3.8637C21.2734 4.29989 21.7856 4.92154 22.088 5.64959C22.296 6.13279 22.4 6.64959 22.4 7.19999V9.59999H24C24.4244 9.59999 24.8313 9.76856 25.1314 10.0686C25.4315 10.3687 25.6 10.7756 25.6 11.2V15.3456C24.8762 14.735 23.9598 14.4 23.0128 14.4H19.2V9.59999H20.8V7.19999C20.8 6.86719 20.7376 6.55359 20.6128 6.26239C20.4317 5.82587 20.1243 5.45343 19.73 5.19286C19.3358 4.93229 18.8726 4.79548 18.4 4.79999C17.9088 4.79999 17.4672 4.93759 17.0752 5.21279C17.4201 5.81826 17.6009 6.50322 17.6 7.19999V14.4832C16.6955 14.6715 15.8835 15.1657 15.3006 15.8826C14.7178 16.5995 14.3998 17.4953 14.4 18.4192V23.0256C14.4 24.0768 14.8128 25.088 15.5488 25.8384L18.448 28.8H11.2C9.93023 28.7997 8.71227 28.2963 7.81283 27.4C7.37381 26.962 7.02197 26.4445 6.77603 25.8752C6.52326 25.2826 6.39527 24.6442 6.40003 24V11.2C6.40003 10.7756 6.5686 10.3687 6.86866 10.0686C7.16872 9.76856 7.57568 9.59999 8.00003 9.59999H9.60003ZM16 9.59999V7.19999C16 6.86719 15.9376 6.55359 15.8128 6.26239C15.6317 5.82587 15.3243 5.45343 14.93 5.19286C14.5358 4.93229 14.0726 4.79548 13.6 4.79999C13.2672 4.79999 12.9536 4.86239 12.6624 4.98719C12.2259 5.1683 11.8535 5.47572 11.5929 5.86999C11.3323 6.26427 11.1955 6.72741 11.2 7.19999V9.59999H16ZM16.6912 24.72C16.2476 24.267 15.9994 23.658 16 23.024V18.4192C15.9996 18.1016 16.0618 17.7871 16.183 17.4936C16.3042 17.2002 16.4821 16.9334 16.7065 16.7088C16.9309 16.4841 17.1974 16.3058 17.4907 16.1842C17.7841 16.0626 18.0985 16 18.416 16H23.0128C23.6576 16 24.2752 16.2576 24.728 16.7152L29.6992 21.7392C29.9249 21.967 30.103 22.2374 30.2233 22.5347C30.3436 22.8319 30.4036 23.1501 30.3998 23.4708C30.3961 23.7914 30.3287 24.1081 30.2016 24.4025C30.0745 24.6969 29.8901 24.9631 29.6592 25.1856L24.944 29.7248C24.4856 30.1665 23.8712 30.4092 23.2346 30.3999C22.5981 30.3906 21.991 30.1301 21.5456 29.6752L16.6912 24.72ZM19.2 20.4C19.2 20.7183 19.3265 21.0235 19.5515 21.2485C19.7765 21.4736 20.0818 21.6 20.4 21.6C20.7183 21.6 21.0235 21.4736 21.2486 21.2485C21.4736 21.0235 21.6 20.7183 21.6 20.4C21.6 20.0817 21.4736 19.7765 21.2486 19.5515C21.0235 19.3264 20.7183 19.2 20.4 19.2C20.0818 19.2 19.7765 19.3264 19.5515 19.5515C19.3265 19.7765 19.2 20.0817 19.2 20.4Z" fill="#FC377E"/>
<mask id="mask0_42_1058" style="mask-type:alpha" maskUnits="userSpaceOnUse" x="6" y="3" width="25" height="28">
<path id="Vector_2" d="M9.60003 9.59999V7.19999C9.60003 6.64959 9.70403 6.13279 9.91203 5.64959C10.12 5.15839 10.408 4.73279 10.7744 4.37439C11.1328 4.00799 11.5584 3.71999 12.0496 3.51199C12.5328 3.30399 13.0496 3.19999 13.6 3.19999C14.0496 3.19999 14.4784 3.27039 14.888 3.41279C15.2976 3.55519 15.672 3.75519 16.0128 4.01279C16.6969 3.48546 17.5363 3.19963 18.4 3.19999C19.1884 3.19648 19.96 3.42751 20.6167 3.8637C21.2734 4.29989 21.7856 4.92154 22.088 5.64959C22.296 6.13279 22.4 6.64959 22.4 7.19999V9.59999H24C24.4244 9.59999 24.8313 9.76856 25.1314 10.0686C25.4315 10.3687 25.6 10.7756 25.6 11.2V15.3456C24.8762 14.735 23.9598 14.4 23.0128 14.4H19.2V9.59999H20.8V7.19999C20.8 6.86719 20.7376 6.55359 20.6128 6.26239C20.4317 5.82587 20.1243 5.45343 19.73 5.19286C19.3358 4.93229 18.8726 4.79548 18.4 4.79999C17.9088 4.79999 17.4672 4.93759 17.0752 5.21279C17.4201 5.81826 17.6009 6.50322 17.6 7.19999V14.4832C16.6955 14.6715 15.8835 15.1657 15.3006 15.8826C14.7178 16.5995 14.3998 17.4953 14.4 18.4192V23.0256C14.4 24.0768 14.8128 25.088 15.5488 25.8384L18.448 28.8H11.2C9.93023 28.7997 8.71227 28.2963 7.81283 27.4C7.37381 26.962 7.02197 26.4445 6.77603 25.8752C6.52326 25.2826 6.39527 24.6442 6.40003 24V11.2C6.40003 10.7756 6.5686 10.3687 6.86866 10.0686C7.16872 9.76856 7.57568 9.59999 8.00003 9.59999H9.60003ZM16 9.59999V7.19999C16 6.86719 15.9376 6.55359 15.8128 6.26239C15.6317 5.82587 15.3243 5.45343 14.93 5.19286C14.5358 4.93229 14.0726 4.79548 13.6 4.79999C13.2672 4.79999 12.9536 4.86239 12.6624 4.98719C12.2259 5.1683 11.8535 5.47572 11.5929 5.86999C11.3323 6.26427 11.1955 6.72741 11.2 7.19999V9.59999H16ZM16.6912 24.72C16.2476 24.267 15.9994 23.658 16 23.024V18.4192C15.9996 18.1016 16.0618 17.7871 16.183 17.4936C16.3042 17.2002 16.4821 16.9334 16.7065 16.7088C16.9309 16.4841 17.1974 16.3058 17.4907 16.1842C17.7841 16.0626 18.0985 16 18.416 16H23.0128C23.6576 16 24.2752 16.2576 24.728 16.7152L29.6992 21.7392C29.9249 21.967 30.103 22.2374 30.2233 22.5347C30.3436 22.8319 30.4036 23.1501 30.3998 23.4708C30.3961 23.7914 30.3287 24.1081 30.2016 24.4025C30.0745 24.6969 29.8901 24.9631 29.6592 25.1856L24.944 29.7248C24.4856 30.1665 23.8712 30.4092 23.2346 30.3999C22.5981 30.3906 21.991 30.1301 21.5456 29.6752L16.6912 24.72ZM19.2 20.4C19.2 20.7183 19.3265 21.0235 19.5515 21.2485C19.7765 21.4736 20.0818 21.6 20.4 21.6C20.7183 21.6 21.0235 21.4736 21.2486 21.2485C21.4736 21.0235 21.6 20.7183 21.6 20.4C21.6 20.0817 21.4736 19.7765 21.2486 19.5515C21.0235 19.3264 20.7183 19.2 20.4 19.2C20.0818 19.2 19.7765 19.3264 19.5515 19.5515C19.3265 19.7765 19.2 20.0817 19.2 20.4Z" fill="#FC377E"/>
</mask>
<g mask="url(#mask0_42_1058)">
<path id="Rectangle 1255" d="M16 16H32V31L23.5 33.5L16 25.5V16Z" fill="#18AFF0"/>
</g>
</g>
</svg>
