<svg width="32" height="32" viewBox="0 0 32 32" fill="none" xmlns="http://www.w3.org/2000/svg">
<g id="fluent:premium-person-16-filled">
<path id="Vector" d="M7.5 4C7.22807 3.9999 6.96122 4.07373 6.72801 4.21359C6.4948 4.35345 6.30399 4.55407 6.176 4.794L2.176 12.294C2.03932 12.5503 1.97998 12.8407 2.00519 13.1301C2.03039 13.4194 2.13906 13.6952 2.318 13.924L12.186 26.556C12.0617 26.0467 11.9993 25.5243 12 25C11.9997 24.0451 12.2729 23.1102 12.7871 22.3056C13.3014 21.5011 14.0353 20.8607 14.902 20.46L13.196 15H15.082C15.2702 13.8833 15.7717 12.8429 16.528 12H12.796L14.046 7H17.954L18.808 10.414C19.7607 10.0394 20.7937 9.9154 21.808 10.054L21.048 7H23.6L26.266 12H25.472C26.1497 12.7544 26.6244 13.6688 26.8514 14.6572C27.0785 15.6456 27.0505 16.6754 26.77 17.65L29.682 13.924C29.8606 13.695 29.9689 13.4191 29.9938 13.1298C30.0186 12.8404 29.959 12.5501 29.822 12.294L25.822 4.794C25.6942 4.55437 25.5037 4.35394 25.2708 4.2141C25.038 4.07427 24.7716 4.00027 24.5 4H7.5ZM5.734 12L8.4 7H10.954L9.704 12H5.734ZM6.966 15H10.054L12.112 21.586L6.966 15ZM25 16C25 17.0609 24.5786 18.0783 23.8284 18.8284C23.0783 19.5786 22.0609 20 21 20C19.9391 20 18.9217 19.5786 18.1716 18.8284C17.4214 18.0783 17 17.0609 17 16C17 14.9391 17.4214 13.9217 18.1716 13.1716C18.9217 12.4214 19.9391 12 21 12C22.0609 12 23.0783 12.4214 23.8284 13.1716C24.5786 13.9217 25 14.9391 25 16ZM28 25C28 27.49 26 30 21 30C16 30 14 27.5 14 25C14 24.2044 14.3161 23.4413 14.8787 22.8787C15.4413 22.3161 16.2043 22 17 22H25C25.7956 22 26.5587 22.3161 27.1213 22.8787C27.6839 23.4413 28 24.2044 28 25Z" fill="#18AFF0"/>
<mask id="mask0_42_1036" style="mask-type:alpha" maskUnits="userSpaceOnUse" x="1" y="4" width="29" height="26">
<path id="Vector_2" d="M7.5 4C7.22807 3.9999 6.96122 4.07373 6.72801 4.21359C6.4948 4.35345 6.30399 4.55407 6.176 4.794L2.176 12.294C2.03932 12.5503 1.97998 12.8407 2.00519 13.1301C2.03039 13.4194 2.13906 13.6952 2.318 13.924L12.186 26.556C12.0617 26.0467 11.9993 25.5243 12 25C11.9997 24.0451 12.2729 23.1102 12.7871 22.3056C13.3014 21.5011 14.0353 20.8607 14.902 20.46L13.196 15H15.082C15.2702 13.8833 15.7717 12.8429 16.528 12H12.796L14.046 7H17.954L18.808 10.414C19.7607 10.0394 20.7937 9.9154 21.808 10.054L21.048 7H23.6L26.266 12H25.472C26.1497 12.7544 26.6244 13.6688 26.8514 14.6572C27.0785 15.6456 27.0505 16.6754 26.77 17.65L29.682 13.924C29.8606 13.695 29.9689 13.4191 29.9938 13.1298C30.0186 12.8404 29.959 12.5501 29.822 12.294L25.822 4.794C25.6942 4.55437 25.5037 4.35394 25.2708 4.2141C25.038 4.07427 24.7716 4.00027 24.5 4H7.5ZM5.734 12L8.4 7H10.954L9.704 12H5.734ZM6.966 15H10.054L12.112 21.586L6.966 15ZM25 16C25 17.0609 24.5786 18.0783 23.8284 18.8284C23.0783 19.5786 22.0609 20 21 20C19.9391 20 18.9217 19.5786 18.1716 18.8284C17.4214 18.0783 17 17.0609 17 16C17 14.9391 17.4214 13.9217 18.1716 13.1716C18.9217 12.4214 19.9391 12 21 12C22.0609 12 23.0783 12.4214 23.8284 13.1716C24.5786 13.9217 25 14.9391 25 16ZM28 25C28 27.49 26 30 21 30C16 30 14 27.5 14 25C14 24.2044 14.3161 23.4413 14.8787 22.8787C15.4413 22.3161 16.2043 22 17 22H25C25.7956 22 26.5587 22.3161 27.1213 22.8787C27.6839 23.4413 28 24.2044 28 25Z" fill="#18AFF0"/>
</mask>
<g mask="url(#mask0_42_1036)">
<path id="Vector 12" d="M15.5 16L17.5 12.5L20 11H23.5L25.5 14.5L26 19.5L30 24L27.5 30L20 31.5L15.5 30L13 26L14 22.5L17.5 20.5L15.5 16Z" fill="#FC377E"/>
</g>
</g>
</svg>
