<svg width="32" height="32" viewBox="0 0 32 32" fill="none" xmlns="http://www.w3.org/2000/svg">
<g id="fluent:person-heart-20-filled">
<path id="Vector" d="M14.4 3.20001C12.7026 3.20001 11.0748 3.8743 9.87453 5.07453C8.6743 6.27476 8.00001 7.90263 8.00001 9.60001C8.00001 11.2974 8.6743 12.9253 9.87453 14.1255C11.0748 15.3257 12.7026 16 14.4 16C16.0974 16 17.7253 15.3257 18.9255 14.1255C20.1257 12.9253 20.8 11.2974 20.8 9.60001C20.8 7.90263 20.1257 6.27476 18.9255 5.07453C17.7253 3.8743 16.0974 3.20001 14.4 3.20001ZM6.41441 17.6C5.99303 17.5983 5.57546 17.6798 5.18565 17.8399C4.79584 17.9999 4.44146 18.2353 4.14283 18.5326C3.84419 18.8299 3.60719 19.1833 3.4454 19.5723C3.28361 19.9614 3.20022 20.3786 3.20001 20.8C3.20001 23.5056 4.53281 25.5456 6.61601 26.8752C8.66721 28.1824 11.432 28.8 14.4 28.8C15.928 28.8 17.4016 28.6368 18.752 28.2992L15.824 25.096C14.8813 24.0662 14.3715 22.7128 14.4004 21.3169C14.4293 19.9211 14.9947 18.59 15.9792 17.6H6.41121H6.41441ZM23.1984 19.2048L22.1936 18.416C21.4373 17.8216 20.4849 17.5335 19.5259 17.6091C18.5669 17.6846 17.6714 18.1183 17.0174 18.8238C16.3635 19.5294 15.999 20.4551 15.9963 21.4171C15.9937 22.3791 16.3531 23.3069 17.0032 24.016L22.608 30.144C22.683 30.226 22.7742 30.2915 22.8758 30.3362C22.9775 30.381 23.0873 30.4042 23.1984 30.4042C23.3095 30.4042 23.4194 30.381 23.521 30.3362C23.6226 30.2915 23.7139 30.226 23.7888 30.144L29.3952 24.016C30.0453 23.3069 30.4047 22.3791 30.4021 21.4171C30.3995 20.4551 30.0349 19.5294 29.381 18.8238C28.7271 18.1183 27.8316 17.6846 26.8725 17.6091C25.9135 17.5335 24.9612 17.8216 24.2048 18.416L23.1984 19.2048Z" fill="#18AFF0"/>
<mask id="mask0_42_1053" style="mask-type:alpha" maskUnits="userSpaceOnUse" x="3" y="3" width="28" height="28">
<path id="Vector_2" d="M14.4 3.20001C12.7026 3.20001 11.0748 3.8743 9.87453 5.07453C8.6743 6.27476 8.00001 7.90263 8.00001 9.60001C8.00001 11.2974 8.6743 12.9253 9.87453 14.1255C11.0748 15.3257 12.7026 16 14.4 16C16.0974 16 17.7253 15.3257 18.9255 14.1255C20.1257 12.9253 20.8 11.2974 20.8 9.60001C20.8 7.90263 20.1257 6.27476 18.9255 5.07453C17.7253 3.8743 16.0974 3.20001 14.4 3.20001ZM6.41441 17.6C5.99303 17.5983 5.57546 17.6798 5.18565 17.8399C4.79584 17.9999 4.44146 18.2353 4.14283 18.5326C3.84419 18.8299 3.60719 19.1833 3.4454 19.5723C3.28361 19.9614 3.20022 20.3786 3.20001 20.8C3.20001 23.5056 4.53281 25.5456 6.61601 26.8752C8.66721 28.1824 11.432 28.8 14.4 28.8C15.928 28.8 17.4016 28.6368 18.752 28.2992L15.824 25.096C14.8813 24.0662 14.3715 22.7128 14.4004 21.3169C14.4293 19.9211 14.9947 18.59 15.9792 17.6H6.41121H6.41441ZM23.1984 19.2048L22.1936 18.416C21.4373 17.8216 20.4849 17.5335 19.5259 17.6091C18.5669 17.6846 17.6714 18.1183 17.0174 18.8238C16.3635 19.5294 15.999 20.4551 15.9963 21.4171C15.9937 22.3791 16.3531 23.3069 17.0032 24.016L22.608 30.144C22.683 30.226 22.7742 30.2915 22.8758 30.3362C22.9775 30.381 23.0873 30.4042 23.1984 30.4042C23.3095 30.4042 23.4194 30.381 23.521 30.3362C23.6226 30.2915 23.7139 30.226 23.7888 30.144L29.3952 24.016C30.0453 23.3069 30.4047 22.3791 30.4021 21.4171C30.3995 20.4551 30.0349 19.5294 29.381 18.8238C28.7271 18.1183 27.8316 17.6846 26.8725 17.6091C25.9135 17.5335 24.9612 17.8216 24.2048 18.416L23.1984 19.2048Z" fill="#18AFF0"/>
</mask>
<g mask="url(#mask0_42_1053)">
<path id="Rectangle 1254" d="M15.832 22.4413C15.3114 21.2266 15.4244 19.8331 16.1339 18.7181L17.207 17.0318C18.0025 15.7818 19.4237 15.0739 20.9007 15.1921L27.319 15.7055C29.3978 15.8718 31 17.6073 31 19.6928V27.6371C31 29.983 28.9905 31.8253 26.6535 31.622L24.2729 31.415C21.3343 31.1595 18.7747 29.3077 17.6128 26.5965L15.832 22.4413Z" fill="#FC377E"/>
</g>
</g>
</svg>
