<svg width="32" height="32" viewBox="0 0 32 32" fill="none" xmlns="http://www.w3.org/2000/svg">
<g id="mdi:plane-train">
<path id="Vector" d="M26.6667 10.6667H18.6667C16.4533 10.6667 14.6667 12.4534 14.6667 14.6667V24C14.6667 26.2134 16.4533 28 18.6667 28L17.6095 29.0572C17.4327 29.234 17.3333 29.4747 17.3333 29.7247C17.3333 30.2438 17.7541 30.6667 18.2732 30.6667C18.5249 30.6667 18.7661 30.5657 18.9428 30.3864L21.0396 28.2582C21.2275 28.0674 21.4841 27.96 21.7519 27.96H23.5814C23.8492 27.96 24.1058 28.0674 24.2938 28.2582L26.3906 30.3864C26.5672 30.5657 26.8084 30.6667 27.0601 30.6667C27.5792 30.6667 28 30.2438 28 29.7247C28 29.4747 27.9007 29.234 27.7239 29.0572L26.6667 28C28.88 28 30.6667 26.2134 30.6667 24V14.6667C30.6667 12.4534 28.88 10.6667 26.6667 10.6667ZM18.6667 25.3334C17.9333 25.3334 17.3333 24.7334 17.3333 24C17.3333 23.2667 17.9333 22.6667 18.6667 22.6667C19.4 22.6667 20 23.2667 20 24C20 24.7334 19.4 25.3334 18.6667 25.3334ZM26.6667 25.3334C25.9333 25.3334 25.3333 24.7334 25.3333 24C25.3333 23.2667 25.9333 22.6667 26.6667 22.6667C27.4 22.6667 28 23.2667 28 24C28 24.7334 27.4 25.3334 26.6667 25.3334ZM28 20.3334C28 20.8856 27.5523 21.3334 27 21.3334H18.3333C17.781 21.3334 17.3333 20.8856 17.3333 20.3334V14.3334C17.3333 13.7811 17.781 13.3334 18.3333 13.3334H27C27.5523 13.3334 28 13.7811 28 14.3334V20.3334ZM9.2313 19.0221C9.01 19.2434 8.90507 19.5555 8.94775 19.8655L9.26599 22.1774C9.30844 22.4858 9.20485 22.7964 8.98578 23.0176L8.87249 23.1319C8.40308 23.6058 7.61011 23.496 7.28711 22.9124L5.72558 20.091C5.6348 19.927 5.49975 19.7918 5.33582 19.7008L2.48201 18.1174C1.90427 17.7968 1.79069 17.014 2.2535 16.5425L2.39011 16.4033C2.61414 16.175 2.93383 16.0677 3.2502 16.1145L5.58227 16.4597C5.89539 16.506 6.21196 16.4014 6.43578 16.1776L10.2801 12.3332C10.7566 11.8568 10.635 11.055 10.0387 10.7412L2.53908 6.79454C1.94146 6.48004 1.82096 5.67583 2.30017 5.19999L2.83505 4.66888C3.0788 4.42685 3.42972 4.32686 3.76443 4.40408L14.94 6.98212C15.2759 7.05961 15.6281 6.9586 15.8719 6.71481L20.6667 1.92002C21.4133 1.14002 22.7467 1.14002 23.4933 1.92002C24.28 2.70669 24.28 4.00002 23.4933 4.74669L19.0764 9.16365C18.9677 9.27231 18.8203 9.33336 18.6667 9.33336C15.72 9.33336 13.3333 11.72 13.3333 14.6667C13.3333 14.8289 13.2689 14.9845 13.1542 15.0992L9.2313 19.0221Z" fill="#18AFF0"/>
<mask id="mask0_42_1017" style="mask-type:alpha" maskUnits="userSpaceOnUse" x="1" y="1" width="30" height="30">
<path id="Vector_2" d="M26.6667 10.6666H18.6667C16.4533 10.6666 14.6667 12.4533 14.6667 14.6666V24C14.6667 26.2133 16.4533 28 18.6667 28L17.6095 29.0572C17.4327 29.234 17.3333 29.4746 17.3333 29.7247C17.3333 30.2438 17.7541 30.6666 18.2732 30.6666C18.5249 30.6666 18.7661 30.5657 18.9428 30.3864L21.0396 28.2581C21.2275 28.0674 21.4841 27.96 21.7519 27.96H23.5814C23.8492 27.96 24.1058 28.0674 24.2938 28.2581L26.3905 30.3864C26.5672 30.5657 26.8084 30.6666 27.0601 30.6666C27.5792 30.6666 28 30.2438 28 29.7247C28 29.4746 27.9007 29.234 27.7239 29.0572L26.6667 28C28.88 28 30.6667 26.2133 30.6667 24V14.6666C30.6667 12.4533 28.88 10.6666 26.6667 10.6666ZM18.6667 25.3333C17.9333 25.3333 17.3333 24.7333 17.3333 24C17.3333 23.2666 17.9333 22.6666 18.6667 22.6666C19.4 22.6666 20 23.2666 20 24C20 24.7333 19.4 25.3333 18.6667 25.3333ZM26.6667 25.3333C25.9333 25.3333 25.3333 24.7333 25.3333 24C25.3333 23.2666 25.9333 22.6666 26.6667 22.6666C27.4 22.6666 28 23.2666 28 24C28 24.7333 27.4 25.3333 26.6667 25.3333ZM28 20.3333C28 20.8856 27.5523 21.3333 27 21.3333H18.3333C17.781 21.3333 17.3333 20.8856 17.3333 20.3333V14.3333C17.3333 13.781 17.781 13.3333 18.3333 13.3333H27C27.5523 13.3333 28 13.781 28 14.3333V20.3333ZM9.2313 19.022C9.01 19.2433 8.90507 19.5554 8.94774 19.8655L9.26598 22.1774C9.30843 22.4858 9.20485 22.7963 8.98577 23.0175L8.87249 23.1319C8.40307 23.6057 7.6101 23.496 7.2871 22.9124L5.72558 20.091C5.6348 19.9269 5.49974 19.7917 5.33582 19.7008L2.482 18.1173C1.90426 17.7968 1.79069 17.014 2.2535 16.5424L2.39011 16.4032C2.61413 16.175 2.93382 16.0677 3.2502 16.1145L5.58226 16.4596C5.89538 16.506 6.21196 16.4013 6.43578 16.1775L10.2801 12.3332C10.7566 11.8567 10.635 11.0549 10.0387 10.7411L2.53907 6.79448C1.94145 6.47998 1.82096 5.67577 2.30017 5.19993L2.83504 4.66882C3.07879 4.42679 3.42971 4.3268 3.76443 4.40402L14.94 6.98205C15.2759 7.05955 15.6281 6.95854 15.8719 6.71475L20.6667 1.91996C21.4133 1.13996 22.7467 1.13996 23.4933 1.91996C24.28 2.70663 24.28 3.99996 23.4933 4.74663L19.0764 9.16359C18.9677 9.27225 18.8203 9.33329 18.6667 9.33329C15.72 9.33329 13.3333 11.72 13.3333 14.6666C13.3333 14.8288 13.2689 14.9844 13.1542 15.0991L9.2313 19.022Z" fill="#18AFF0"/>
</mask>
<g mask="url(#mask0_42_1017)">
<path id="Rectangle 1244" d="M14 16C14 12.6863 16.6863 10 20 10H31V31H14V16Z" fill="#FC377E"/>
</g>
</g>
</svg>
