<svg width="24" height="24" viewBox="0 0 24 24" fill="none" xmlns="http://www.w3.org/2000/svg">
<g id="fluent:document-image-16-filled">
<path id="Vector" d="M13.5 1.5V6.75C13.5 7.34674 13.7371 7.91903 14.159 8.34099C14.581 8.76295 15.1533 9 15.75 9H21V20.25C21 20.8467 20.763 21.419 20.341 21.841C19.919 22.2629 19.3467 22.5 18.75 22.5H15.9945C16.3185 21.8175 16.5 21.0555 16.5 20.25V14.25C16.5 12.8576 15.9469 11.5223 14.9623 10.5377C13.9778 9.55312 12.6424 9 11.25 9H6.00001V3.75C6.00001 3.15326 6.23706 2.58097 6.65902 2.15901C7.08098 1.73705 7.65327 1.5 8.25001 1.5H13.5ZM15 1.875V6.75C15 6.94891 15.079 7.13968 15.2197 7.28033C15.3603 7.42098 15.5511 7.5 15.75 7.5H20.625L15 1.875ZM1.50001 14.25C1.50001 13.2554 1.8951 12.3016 2.59836 11.5983C3.30162 10.8951 4.25545 10.5 5.25001 10.5H11.25C12.2446 10.5 13.1984 10.8951 13.9017 11.5983C14.6049 12.3016 15 13.2554 15 14.25V20.25C15 21.015 14.772 21.7245 14.379 22.3185L9.84001 17.781C9.63106 17.5719 9.38296 17.4061 9.10988 17.2929C8.83681 17.1797 8.54411 17.1215 8.24851 17.1215C7.95292 17.1215 7.66022 17.1797 7.38714 17.2929C7.11406 17.4061 6.86596 17.5719 6.65701 17.781L2.11951 22.3185C1.7137 21.7051 1.49818 20.9855 1.50001 20.25V14.25ZM12 14.625C12 14.3266 11.8815 14.0405 11.6705 13.8295C11.4595 13.6185 11.1734 13.5 10.875 13.5C10.5766 13.5 10.2905 13.6185 10.0795 13.8295C9.86854 14.0405 9.75001 14.3266 9.75001 14.625C9.75001 14.9234 9.86854 15.2095 10.0795 15.4205C10.2905 15.6315 10.5766 15.75 10.875 15.75C11.1734 15.75 11.4595 15.6315 11.6705 15.4205C11.8815 15.2095 12 14.9234 12 14.625ZM3.18151 23.379C3.77551 23.772 4.48651 24 5.25001 24H11.25C12.015 24 12.7245 23.772 13.3185 23.379L8.78101 18.84C8.71134 18.7702 8.62858 18.7147 8.53746 18.6769C8.44634 18.6391 8.34866 18.6197 8.25001 18.6197C8.15136 18.6197 8.05368 18.6391 7.96256 18.6769C7.87144 18.7147 7.78868 18.7702 7.71901 18.84L3.18151 23.3775V23.379Z" fill="#18AFF0"/>
<mask id="mask0_63_308" style="mask-type:alpha" maskUnits="userSpaceOnUse" x="1" y="1" width="20" height="23">
<path id="Vector_2" d="M13.5 1.5V6.75C13.5 7.34674 13.7371 7.91903 14.159 8.34099C14.581 8.76295 15.1533 9 15.75 9H21V20.25C21 20.8467 20.763 21.419 20.341 21.841C19.919 22.2629 19.3467 22.5 18.75 22.5H15.9945C16.3185 21.8175 16.5 21.0555 16.5 20.25V14.25C16.5 12.8576 15.9469 11.5223 14.9623 10.5377C13.9778 9.55312 12.6424 9 11.25 9H6.00001V3.75C6.00001 3.15326 6.23706 2.58097 6.65902 2.15901C7.08098 1.73705 7.65327 1.5 8.25001 1.5H13.5ZM15 1.875V6.75C15 6.94891 15.079 7.13968 15.2197 7.28033C15.3603 7.42098 15.5511 7.5 15.75 7.5H20.625L15 1.875ZM1.50001 14.25C1.50001 13.2554 1.8951 12.3016 2.59836 11.5983C3.30162 10.8951 4.25545 10.5 5.25001 10.5H11.25C12.2446 10.5 13.1984 10.8951 13.9017 11.5983C14.6049 12.3016 15 13.2554 15 14.25V20.25C15 21.015 14.772 21.7245 14.379 22.3185L9.84001 17.781C9.63106 17.5719 9.38296 17.4061 9.10988 17.2929C8.83681 17.1797 8.54411 17.1215 8.24851 17.1215C7.95292 17.1215 7.66022 17.1797 7.38714 17.2929C7.11406 17.4061 6.86596 17.5719 6.65701 17.781L2.11951 22.3185C1.7137 21.7051 1.49818 20.9855 1.50001 20.25V14.25ZM12 14.625C12 14.3266 11.8815 14.0405 11.6705 13.8295C11.4595 13.6185 11.1734 13.5 10.875 13.5C10.5766 13.5 10.2905 13.6185 10.0795 13.8295C9.86854 14.0405 9.75001 14.3266 9.75001 14.625C9.75001 14.9234 9.86854 15.2095 10.0795 15.4205C10.2905 15.6315 10.5766 15.75 10.875 15.75C11.1734 15.75 11.4595 15.6315 11.6705 15.4205C11.8815 15.2095 12 14.9234 12 14.625ZM3.18151 23.379C3.77551 23.772 4.48651 24 5.25001 24H11.25C12.015 24 12.7245 23.772 13.3185 23.379L8.78101 18.84C8.71134 18.7702 8.62858 18.7147 8.53746 18.6769C8.44634 18.6391 8.34866 18.6197 8.25001 18.6197C8.15136 18.6197 8.05368 18.6391 7.96256 18.6769C7.87144 18.7147 7.78868 18.7702 7.71901 18.84L3.18151 23.3775V23.379Z" fill="#18AFF0"/>
</mask>
<g mask="url(#mask0_63_308)">
<rect id="Rectangle 1256" x="0.5" y="10" width="15" height="15" rx="4" fill="#FC377E"/>
</g>
</g>
</svg>
