<svg width="40" height="40" viewBox="0 0 40 40" fill="none" xmlns="http://www.w3.org/2000/svg">
<g id="Social Icons / White / Dribbble">
<path id="BG" opacity="0.1" fill-rule="evenodd" clip-rule="evenodd" d="M0 20C0 8.95431 8.95431 0 20 0C31.0457 0 40 8.95431 40 20C40 31.0457 31.0457 40 20 40C8.95431 40 0 31.0457 0 20Z" fill="#FC377E"/>
<path id="Vector (Stroke)" fill-rule="evenodd" clip-rule="evenodd" d="M18.7574 9.91712C19.8826 8.68961 21.4087 8 23 8H26C26.5523 8 27 8.48842 27 9.09091V13.4545C27 14.057 26.5523 14.5455 26 14.5455H23V16.7273H26C26.3079 16.7273 26.5987 16.882 26.7882 17.1468C26.9777 17.4116 27.0448 17.7569 26.9701 18.0828L25.9701 22.4464C25.8588 22.932 25.4589 23.2727 25 23.2727H23V30.9091C23 31.5116 22.5523 32 22 32H18C17.4477 32 17 31.5116 17 30.9091V23.2727H15C14.4477 23.2727 14 22.7843 14 22.1818V17.8182C14 17.2157 14.4477 16.7273 15 16.7273H17V14.5455C17 12.8095 17.6321 11.1446 18.7574 9.91712ZM23 10.1818C21.9391 10.1818 20.9217 10.6416 20.1716 11.4599C19.4214 12.2782 19 13.3881 19 14.5455V17.8182C19 18.4207 18.5523 18.9091 18 18.9091H16V21.0909H18C18.5523 21.0909 19 21.5793 19 22.1818V29.8182H21V22.1818C21 21.5793 21.4477 21.0909 22 21.0909H24.2192L24.7192 18.9091H22C21.4477 18.9091 21 18.4207 21 17.8182V14.5455C21 13.9668 21.2107 13.4118 21.5858 13.0027C21.9609 12.5935 22.4696 12.3636 23 12.3636H25V10.1818H23Z" fill="#FC377E"/>
</g>
</svg>
