<svg width="40" height="40" viewBox="0 0 40 40" fill="none" xmlns="http://www.w3.org/2000/svg">
<g id="Social Icons / White / Instagram">
<path id="BG" opacity="0.1" fill-rule="evenodd" clip-rule="evenodd" d="M0 20C0 8.95431 8.95431 0 20 0C31.0457 0 40 8.95431 40 20C40 31.0457 31.0457 40 20 40C8.95431 40 0 31.0457 0 20Z" fill="#FC377E"/>
<path id="Path" fill-rule="evenodd" clip-rule="evenodd" d="M20.001 9.33325C17.1041 9.33325 16.7405 9.34592 15.6027 9.3977C14.4671 9.4497 13.692 9.62948 13.0138 9.89326C12.3122 10.1657 11.7171 10.5302 11.1242 11.1233C10.5309 11.7162 10.1664 12.3113 9.8931 13.0126C9.62865 13.6911 9.44865 14.4664 9.39754 15.6015C9.34665 16.7393 9.33331 17.1031 9.33331 20C9.33331 22.8969 9.3462 23.2594 9.39776 24.3972C9.44998 25.5328 9.62976 26.3079 9.89332 26.9861C10.166 27.6877 10.5304 28.2828 11.1236 28.8757C11.7162 29.469 12.3113 29.8344 13.0125 30.1068C13.6911 30.3706 14.4665 30.5504 15.6018 30.6024C16.7396 30.6541 17.103 30.6668 19.9996 30.6668C22.8968 30.6668 23.2592 30.6541 24.397 30.6024C25.5326 30.5504 26.3086 30.3706 26.9873 30.1068C27.6886 29.8344 28.2828 29.469 28.8755 28.8757C29.4689 28.2828 29.8333 27.6877 30.1066 26.9863C30.3689 26.3079 30.5489 25.5325 30.6022 24.3974C30.6533 23.2596 30.6666 22.8969 30.6666 20C30.6666 17.1031 30.6533 16.7396 30.6022 15.6018C30.5489 14.4662 30.3689 13.6911 30.1066 13.0128C29.8333 12.3113 29.4689 11.7162 28.8755 11.1233C28.2822 10.5299 27.6888 10.1655 26.9866 9.89326C26.3066 9.62948 25.531 9.4497 24.3955 9.3977C23.2577 9.34592 22.8955 9.33325 19.9976 9.33325H20.001ZM19.044 11.2555C19.328 11.255 19.6449 11.2555 20.0009 11.2555C22.849 11.2555 23.1865 11.2657 24.3112 11.3168C25.3512 11.3644 25.9157 11.5381 26.2917 11.6841C26.7894 11.8775 27.1443 12.1086 27.5175 12.4819C27.8908 12.8553 28.1219 13.2108 28.3157 13.7086C28.4617 14.0842 28.6357 14.6486 28.683 15.6886C28.7341 16.8131 28.7452 17.1509 28.7452 19.9976C28.7452 22.8443 28.7341 23.182 28.683 24.3065C28.6355 25.3465 28.4617 25.911 28.3157 26.2865C28.1224 26.7843 27.8908 27.1387 27.5175 27.5119C27.1441 27.8852 26.7897 28.1163 26.2917 28.3096C25.9161 28.4563 25.3512 28.6296 24.3112 28.6772C23.1867 28.7283 22.849 28.7394 20.0009 28.7394C17.1527 28.7394 16.8151 28.7283 15.6907 28.6772C14.6507 28.6292 14.0862 28.4554 13.71 28.3094C13.2122 28.1161 12.8566 27.885 12.4833 27.5116C12.11 27.1383 11.8788 26.7836 11.6851 26.2856C11.5391 25.9101 11.3651 25.3456 11.3177 24.3056C11.2666 23.1811 11.2564 22.8434 11.2564 19.9949C11.2564 17.1464 11.2666 16.8104 11.3177 15.686C11.3653 14.6459 11.5391 14.0815 11.6851 13.7055C11.8784 13.2077 12.11 12.8521 12.4833 12.4788C12.8566 12.1055 13.2122 11.8744 13.71 11.6806C14.086 11.5339 14.6507 11.3606 15.6907 11.3128C16.6747 11.2684 17.056 11.255 19.044 11.2528V11.2555ZM25.6948 13.0266C24.9881 13.0266 24.4148 13.5993 24.4148 14.3062C24.4148 15.0128 24.9881 15.5862 25.6948 15.5862C26.4015 15.5862 26.9748 15.0128 26.9748 14.3062C26.9748 13.5995 26.4015 13.0266 25.6948 13.0266ZM20.001 14.5222C16.9759 14.5222 14.5232 16.9749 14.5232 20C14.5232 23.0251 16.9759 25.4767 20.001 25.4767C23.0261 25.4767 25.4779 23.0251 25.4779 20C25.4779 16.9749 23.0261 14.5222 20.001 14.5222ZM20.001 16.4444C21.9645 16.4444 23.5566 18.0362 23.5566 20C23.5566 21.9636 21.9645 23.5556 20.001 23.5556C18.0372 23.5556 16.4454 21.9636 16.4454 20C16.4454 18.0362 18.0372 16.4444 20.001 16.4444Z" fill="#FC377E"/>
</g>
</svg>
