<svg width="40" height="40" viewBox="0 0 40 40" fill="none" xmlns="http://www.w3.org/2000/svg">
<g id="Social Icons / White / Twitter">
<path id="BG" opacity="0.1" fill-rule="evenodd" clip-rule="evenodd" d="M0 20C0 8.95431 8.95431 0 20 0C31.0457 0 40 8.95431 40 20C40 31.0457 31.0457 40 20 40C8.95431 40 0 31.0457 0 20Z" fill="#FC377E"/>
<path id="Union" fill-rule="evenodd" clip-rule="evenodd" d="M12.0108 14.4121C12.1687 14.1032 12.4933 13.8889 12.8637 13.8889H28.1363C28.5066 13.8889 28.8313 14.1032 28.9891 14.4121L20.5 20.2917L12.0108 14.4121ZM10.0001 14.8194C9.99998 14.8273 9.99997 14.8352 10.0001 14.843V26.1667C10.0001 27.7272 11.2865 29 12.8637 29H28.1363C29.7134 29 30.9999 27.7272 30.9999 26.1667V14.8466C31.0001 14.8358 31 14.8249 30.9998 14.8141C30.9893 13.2624 29.707 12 28.1363 12H12.8637C11.2912 12 10.0077 13.2653 10.0001 14.8194ZM29.0908 16.6474V26.1667C29.0908 26.684 28.6591 27.1111 28.1363 27.1111H12.8637C12.3409 27.1111 11.9091 26.684 11.9091 26.1667V16.6474L19.9526 22.2182C20.2813 22.4459 20.7187 22.4459 21.0474 22.2182L29.0908 16.6474Z" fill="#FC377E"/>
</g>
</svg>
