<svg width="40" height="40" viewBox="0 0 40 40" fill="none" xmlns="http://www.w3.org/2000/svg">
<g id="Social Icons / White / Twitter">
<path id="BG" opacity="0.1" fill-rule="evenodd" clip-rule="evenodd" d="M0 20C0 8.95431 8.95431 0 20 0C31.0457 0 40 8.95431 40 20C40 31.0457 31.0457 40 20 40C8.95431 40 0 31.0457 0 20Z" fill="#FC377E"/>
<path id="Union" fill-rule="evenodd" clip-rule="evenodd" d="M29.8889 10.2929C30.1124 10.5164 30.208 10.8194 30.1757 11.1108C30.1666 11.1925 30.1475 11.2734 30.1184 11.3513L23.762 29.5122C23.6266 29.8992 23.2686 30.1643 22.8589 30.181C22.4493 30.1977 22.0709 29.9627 21.9044 29.588L18.4242 21.7576L10.5939 18.2775C10.2192 18.1109 9.98412 17.7326 10.0008 17.3229C10.0176 16.9132 10.2827 16.5553 10.6697 16.4198L28.8306 10.0635C28.9085 10.0343 28.9893 10.0152 29.071 10.0061C29.1314 9.99942 29.192 9.99825 29.2519 10.0025C29.484 10.0187 29.7115 10.1155 29.8889 10.2929ZM25.3761 13.3915L13.7111 17.4743L18.9604 19.8073L25.3761 13.3915ZM20.3746 21.2215L26.7903 14.8057L22.7076 26.4708L20.3746 21.2215Z" fill="#FC377E"/>
</g>
</svg>
